<svg width="65" height="130" viewBox="0 0 65 130" fill="currentColor" xmlns="http://www.w3.org/2000/svg">
<path d="M36.9152 105.846C41.3587 104.291 45.8024 102.625 50.3571 101.236C52.4122 100.57 54.6338 100.07 56.8001 100.07C59.7439 100.07 62.4102 102.792 62.799 105.68C63.0768 107.735 61.4659 110.957 59.6329 110.845C52.4121 110.457 47.1908 115.067 41.2475 117.733C36.193 120.01 31.5274 123.121 26.4729 125.398C22.8069 127.065 18.9187 128.62 14.975 129.231C5.58796 130.675 -1.35507 123.954 0.311266 114.789C2.64414 102.069 5.58801 89.4608 10.587 77.4076C11.5868 75.0747 12.8644 72.7418 14.5308 70.8533C17.0858 67.965 22.6957 69.5758 23.2511 73.4084C23.6955 76.63 23.3624 80.0182 23.1402 83.3508C22.8069 88.4609 22.1959 93.5711 21.696 99.1256C23.4179 99.0701 24.6954 99.4032 25.3064 98.9033C35.4711 90.0717 44.0249 79.9072 49.6904 67.6318C54.4673 57.356 56.5226 46.6358 53.4121 35.3047C49.024 19.3633 36.4708 8.80987 19.9184 7.69898C18.0855 7.58789 16.3081 7.69898 14.975 7.69898C12.7532 5.25501 13.6975 3.53315 15.3083 2.58889C18.9187 0.478194 22.8623 -0.077226 27.0836 0.533766C46.7465 3.58872 61.7993 19.53 63.9655 39.5261C65.1875 51.1905 63.41 62.355 58.3555 73.0196C54.1896 81.7957 48.6906 89.6274 42.4696 97.0149C40.3589 99.5699 38.137 102.014 35.9708 104.513C36.2485 104.902 36.5819 105.347 36.9152 105.846Z" fill="currentColor"/>
</svg>
